<svg xmlns="http://www.w3.org/2000/svg" width="1920" height="1080" viewBox="0 0 1920 1080" role="img" aria-labelledby="character-creation-title character-creation-desc">
<title id="character-creation-title">CREATE CHARACTER — Lighthaven wireframe</title><desc id="character-creation-desc">Name &amp; appearance → four questions → roll → review → confirm. Layout specification only. Unknown values are not zero. All actionable controls have keyboard and gamepad equivalents in the paired Markdown specification.</desc>
<style>
.bg{fill:#171717}.panel{fill:#242424;stroke:#909090;stroke-width:2}.raised,.button{fill:#333333;stroke:#909090;stroke-width:2}.focus{fill:#333333;stroke:#E9BF79;stroke-width:3}.rule{fill:none;stroke:#909090;stroke-width:2}.guide{fill:none;stroke:#909090;stroke-width:1;stroke-dasharray:9 12}.body,.muted,.small,.heading,.title,.amber,.cool{font-family:'Liberation Sans',sans-serif;fill:#F2F2F2;font-size:30px}.muted{fill:#C4C4C4}.small{font-size:24px;fill:#C4C4C4}.heading{font-size:36px;font-weight:bold}.title{font-size:48px;font-weight:bold}.amber{fill:#E9BF79}.cool{fill:#A9C4CC}
</style>
<rect class="bg" width="1920" height="1080"/><rect x="72" y="54" width="1776" height="972" class="guide"/>
<text x="96" y="110" class="title">CREATE CHARACTER</text><text x="96" y="150" class="small">Name &amp; appearance → four questions → roll → review → confirm</text>
<rect x="72" y="174" width="426" height="720" rx="6" class="panel"/><text x="96" y="228" class="heading">Human appearance</text><text x="96" y="270" class="small">Cosmetic preview</text><circle cx="282" cy="342" r="42" class="raised"/><path d="M204 486V426Q204 396 240 396H324Q360 396 360 426V486Z" class="raised"/><text x="96" y="552" class="body">Name entered</text><text x="96" y="612" class="body">Body: selected option</text><text x="96" y="672" class="body">Hair: selected option</text><text x="96" y="732" class="body">Skin: selected option</text><text x="96" y="792" class="body">Starter appearance</text><text x="96" y="858" class="small">No attribute bonuses</text><rect x="522" y="174" width="726" height="720" rx="6" class="panel"/><text x="546" y="228" class="heading">Question 2 of 4</text><text x="546" y="282" class="amber">Q1 ✓     Q2 ›     Q3 ○     Q4 ○</text><text x="546" y="330" class="body">{Question text from content}</text><rect x="546" y="354" width="678" height="72" rx="6" class="button"/><text x="570" y="400" class="body">1. {Answer text}</text><rect x="546" y="438" width="678" height="72" rx="6" class="focus"/><text x="570" y="484" class="body">› 2. {Answer text}  ✓</text><rect x="546" y="522" width="678" height="72" rx="6" class="button"/><text x="570" y="568" class="body">3. {Answer text}</text><rect x="546" y="606" width="678" height="72" rx="6" class="button"/><text x="570" y="652" class="body">4. {Answer text}</text><rect x="546" y="690" width="678" height="72" rx="6" class="button"/><text x="570" y="736" class="body">5. {Answer text}</text><rect x="546" y="798" width="324" height="72" rx="6" class="button"/><text x="570" y="844" class="body">Previous</text><rect x="894" y="798" width="330" height="72" rx="6" class="button"/><text x="918" y="844" class="body">Next</text><rect x="1272" y="174" width="576" height="720" rx="6" class="panel"/><text x="1296" y="228" class="heading">Legal stat review</text><text x="1296" y="270" class="small">Prototype mode • not rolled</text><text x="1296" y="330" class="body">Strength</text><text x="1566" y="330" class="muted">— Unknown</text><text x="1296" y="384" class="body">Endurance</text><text x="1566" y="384" class="muted">— Unknown</text><text x="1296" y="438" class="body">Agility</text><text x="1566" y="438" class="muted">— Unknown</text><text x="1296" y="492" class="body">Intelligence</text><text x="1566" y="492" class="muted">— Unknown</text><text x="1296" y="546" class="body">Wisdom</text><text x="1566" y="546" class="muted">— Unknown</text><path d="M1296 576H1824" class="rule"/><text x="1296" y="624" class="body">Starter legality: Unknown</text><text x="1296" y="678" class="body">Initial resources: Unknown</text><text x="1296" y="732" class="body">Roll unlocks after Q4</text><rect x="1296" y="798" width="528" height="72" rx="6" class="button"/><text x="1320" y="844" class="body">Review / Confirm</text>
<text x="96" y="936" class="body">! Answers and name survive errors • required unknown rules block confirmation</text>
<rect x="72" y="954" width="1776" height="72" rx="6" class="raised"/><text x="96" y="1000" class="small">[A] Select     [B] Previous     [LB/RB] Completed steps     [Y] Details</text>
</svg>
