<svg xmlns="http://www.w3.org/2000/svg" width="1920" height="1080" viewBox="0 0 1920 1080" role="img" aria-labelledby="services-title services-desc">
<title id="services-title">TRAINER / VENDOR — Lighthaven wireframe</title><desc id="services-desc">{NPC name} • {actual location} • show only offered capability tabs. Layout specification only. Unknown values are not zero. All actionable controls have keyboard and gamepad equivalents in the paired Markdown specification.</desc>
<style>
.bg{fill:#171717}.panel{fill:#242424;stroke:#909090;stroke-width:2}.raised,.button{fill:#333333;stroke:#909090;stroke-width:2}.focus{fill:#333333;stroke:#E9BF79;stroke-width:3}.rule{fill:none;stroke:#909090;stroke-width:2}.guide{fill:none;stroke:#909090;stroke-width:1;stroke-dasharray:9 12}.body,.muted,.small,.heading,.title,.amber,.cool{font-family:'Liberation Sans',sans-serif;fill:#F2F2F2;font-size:30px}.muted{fill:#C4C4C4}.small{font-size:24px;fill:#C4C4C4}.heading{font-size:36px;font-weight:bold}.title{font-size:48px;font-weight:bold}.amber{fill:#E9BF79}.cool{fill:#A9C4CC}
</style>
<rect class="bg" width="1920" height="1080"/><rect x="72" y="54" width="1776" height="972" class="guide"/>
<text x="96" y="110" class="title">TRAINER / VENDOR</text><text x="96" y="150" class="small">{NPC name} • {actual location} • show only offered capability tabs</text>
<rect x="72" y="174" width="576" height="720" rx="6" class="panel"/><text x="96" y="228" class="heading">Available offers</text><text x="96" y="270" class="small">Skills / Spells / Buy / Sell</text><rect x="96" y="306" width="528" height="72" rx="6" class="focus"/><text x="114" y="350" class="body">› {Selected offer}</text><text x="120" y="414" class="small">Cost from authority quote</text><rect x="96" y="462" width="528" height="72" rx="6" class="button"/><text x="114" y="506" class="body">{Offer name}</text><rect x="96" y="570" width="528" height="72" rx="6" class="button"/><text x="114" y="614" class="body">{Offer name}</text><text x="96" y="750" class="small">Only this NPC's services</text><text x="96" y="792" class="small">No remote acquisition</text><rect x="672" y="174" width="1176" height="720" rx="6" class="panel"/><text x="696" y="228" class="heading">Offer review</text><text x="696" y="294" class="body">Gold — Unknown       Skill Points — Unknown</text><text x="696" y="354" class="body">{Skill / spell / item name}</text><text x="696" y="414" class="body">Requirements — Unknown</text><rect x="696" y="462" width="552" height="72" rx="6" class="button"/><text x="720" y="508" class="body">−   Quantity / points   +</text><rect x="1272" y="462" width="552" height="72" rx="6" class="button"/><text x="1296" y="508" class="body">Details</text><rect x="696" y="558" width="1128" height="192" rx="6" class="raised"/><text x="720" y="600" class="body">Before balance     →     Cost / proceeds     →     After</text><text x="720" y="642" class="body">Gold — Unknown    •    Skill Points — Unknown</text><text x="720" y="684" class="body">Cast MP is separate from spell learning cost</text><rect x="696" y="798" width="1128" height="72" rx="6" class="button"/><text x="720" y="844" class="body">Review transaction</text>
<text x="96" y="936" class="body">! Unresolved quote • review and confirm required before any transaction</text>
<rect x="72" y="954" width="1776" height="72" rx="6" class="raised"/><text x="96" y="1000" class="small">[A] Select / Confirm     [B] Dialogue     [LB/RB] Services     [Y] Details</text>
</svg>
