<svg xmlns="http://www.w3.org/2000/svg" width="1280" height="1744" viewBox="0 0 1280 1744" role="img" aria-labelledby="title desc">
<title id="title">A-03 / CREATURES AT DEFAULT CAMERA</title><desc id="desc">1280×720 camera crops · boom1200 cm · pitch−55° · yaw45° · HFOV45° Original projected primitive specification, not an Unreal screenshot. View at 100 percent.</desc>
<defs><g id="P-BodyA"><polygon points="-11.21,-27.11 2.57,-38.53 23.33,-21.35 23.06,-9.35 9.44,2.17 -11.08,-15.07" fill="#55402C" stroke="#171717" stroke-width="0.6"/><polygon points="-32.14,-9.75 -18.15,-21.35 2.61,-3.91 2.58,7.98 -11.25,19.68 -31.77,2.17" fill="#55402C" stroke="#171717" stroke-width="0.6"/><polygon points="1.82,-20.63 1.89,-61.25 2.56,-64.03 4.48,-66.39 7.35,-67.96 10.74,-68.51 14.14,-67.96 17.03,-66.39 18.97,-64.03 19.67,-61.25 18.93,-20.63 18.30,-17.89 16.46,-15.57 13.69,-14.01 10.41,-13.46 7.12,-14.01 4.33,-15.57 2.47,-17.89" fill="#B5A58A" stroke="#171717" stroke-width="0.6"/><polygon points="-19.83,-43.44 -19.12,-46.27 -17.16,-48.66 -14.25,-50.26 -10.83,-50.82 -7.41,-50.26 -4.52,-48.66 -2.58,-46.27 -1.90,-43.44 -1.83,-3.18 -2.49,-0.40 -4.37,1.96 -7.17,3.55 -10.49,4.10 -13.80,3.55 -16.59,1.96 -18.44,-0.40 -19.08,-3.18" fill="#B5A58A" stroke="#171717" stroke-width="0.6"/><polygon points="-31.88,-52.38 -29.32,-62.37 -22.36,-70.78 -12.07,-76.36 0.00,-78.35 12.07,-76.36 22.36,-70.78 29.32,-62.37 31.88,-52.38 29.59,-42.29 22.74,-33.67 12.34,-27.87 0.00,-25.82 -12.34,-27.87 -22.74,-33.67 -29.59,-42.29" fill="#B5A58A" stroke="#171717" stroke-width="0.6"/><polygon points="16.10,-89.76 16.46,-92.29 17.11,-94.66 18.57,-96.57 19.99,-97.67 21.79,-98.58 24.01,-98.80 26.30,-98.30 28.33,-97.15 29.77,-95.53 31.32,-93.78 32.17,-91.36 32.73,-88.73 32.38,-86.19 31.70,-83.84 30.25,-81.93 28.81,-80.86 27.02,-79.95 24.81,-79.73 22.53,-80.23 20.51,-81.38 19.39,-82.60 17.52,-84.73 16.69,-87.14" fill="#8B5A40" stroke="#171717" stroke-width="0.6"/><polygon points="-20.49,-54.96 -18.38,-61.47 -17.05,-64.98 -12.53,-70.21 -6.13,-73.86 1.18,-75.40 8.31,-74.60 14.19,-71.57 17.94,-66.77 19.34,-63.40 20.47,-57.06 18.47,-50.53 17.00,-47.07 12.55,-41.79 6.16,-38.07 -1.19,-36.50 -8.36,-37.32 -14.24,-40.40 -17.92,-45.27 -19.47,-48.58" fill="#B5A58A" stroke="#171717" stroke-width="0.6"/><polygon points="-35.76,-60.32 8.12,-95.84 35.55,-73.78 35.35,-67.83 -8.29,-31.69 -35.57,-54.42" fill="#55402C" stroke="#171717" stroke-width="0.6"/><polygon points="16.09,-93.82 16.52,-123.43 17.29,-126.65 19.56,-129.37 22.95,-131.18 26.97,-131.82 31.01,-131.18 34.46,-129.37 36.79,-126.65 37.65,-123.43 36.67,-93.82 35.94,-90.64 33.75,-87.93 30.42,-86.11 26.48,-85.48 22.52,-86.11 19.15,-87.93 16.90,-90.64" fill="#B5A58A" stroke="#171717" stroke-width="0.6"/><polygon points="-37.05,-46.51 -36.61,-49.14 -36.09,-51.44 -34.55,-53.43 -33.24,-54.44 -31.37,-55.39 -29.11,-55.62 -26.78,-55.10 -24.74,-53.91 -23.48,-52.73 -21.61,-50.52 -20.81,-48.01 -20.11,-45.43 -20.53,-42.79 -21.10,-40.50 -22.62,-38.51 -23.95,-37.54 -25.80,-36.59 -28.06,-36.36 -30.38,-36.88 -32.40,-38.08 -33.68,-39.22 -35.53,-41.42 -36.32,-43.93" fill="#8B5A40" stroke="#171717" stroke-width="0.6"/><polygon points="-35.16,-99.55 8.42,-134.20 34.94,-113.24 33.56,-68.57 -8.29,-33.95 -33.77,-55.15" fill="#B5A58A" stroke="#171717" stroke-width="0.6"/><polygon points="-38.42,-79.41 -37.54,-82.75 -35.16,-85.59 -31.65,-87.47 -27.53,-88.14 -23.42,-87.47 -19.96,-85.59 -17.65,-82.75 -16.85,-79.41 -16.41,-50.36 -17.23,-47.05 -19.54,-44.23 -22.97,-42.35 -27.01,-41.68 -31.03,-42.35 -34.42,-44.23 -36.66,-47.05 -37.40,-50.36" fill="#B5A58A" stroke="#171717" stroke-width="0.6"/><polygon points="-18.99,-132.08 -9.69,-131.26 -8.85,-130.85 -8.55,-129.82 -8.83,-128.34 -9.65,-126.63 -10.88,-124.94 -12.34,-123.54 -13.80,-122.62 -15.05,-122.35 -15.89,-122.75" fill="#8B5A40" stroke="#171717" stroke-width="0.6"/><polygon points="-18.26,-118.27 -17.09,-123.79 -15.85,-127.73 -12.37,-131.97 -7.02,-134.71 -5.40,-135.53 -0.48,-136.16 4.51,-135.23 8.83,-132.88 11.49,-131.27 15.38,-126.81 16.95,-121.61 18.27,-117.19 17.18,-111.63 15.81,-107.75 12.39,-103.46 7.05,-100.68 5.37,-100.02 0.48,-99.38 -4.49,-100.31 -5.89,-101.06 -11.50,-104.17 -15.33,-108.67 -16.66,-112.63" fill="#8B5A40" stroke="#171717" stroke-width="0.6"/><polygon points="-18.79,-124.89 -17.50,-130.85 -13.42,-135.79 -12.35,-136.83 -6.57,-139.79 0.33,-140.69 7.33,-139.41 13.38,-136.13 14.38,-135.03 18.91,-129.85 20.72,-123.81 19.54,-117.81 15.50,-112.78 14.36,-111.78 8.57,-108.76 1.60,-107.83 -5.46,-109.15 -11.53,-112.49 -12.59,-113.55 -17.07,-118.82" fill="#30251D" stroke="#171717" stroke-width="0.6"/></g><g id="E01"><polygon points="-3.88,-17.62 -3.65,-18.59 -2.99,-19.41 -2.01,-19.96 -0.85,-20.15 0.30,-19.96 1.28,-19.41 1.94,-18.59 2.17,-17.62 2.16,-13.65 1.93,-12.68 1.28,-11.86 0.30,-11.31 -0.85,-11.12 -2.01,-11.31 -2.99,-11.86 -3.64,-12.68 -3.87,-13.65" fill="#9A7865" stroke="#171717" stroke-width="0.6"/><polygon points="-19.40,-4.67 -19.16,-5.65 -18.49,-6.48 -17.50,-7.03 -16.34,-7.23 -15.17,-7.03 -14.19,-6.48 -13.54,-5.65 -13.31,-4.67 -13.26,-0.72 -13.50,0.26 -14.16,1.08 -15.15,1.64 -16.31,1.83 -17.47,1.64 -18.45,1.08 -19.10,0.26 -19.32,-0.72" fill="#9A7865" stroke="#171717" stroke-width="0.6"/><polygon points="-19.31,-24.14 -10.73,-24.39 -9.79,-24.08 -9.45,-23.06 -9.76,-21.51 -10.68,-19.65 -12.07,-17.76 -13.72,-16.14 -15.37,-15.02 -16.78,-14.58 -17.74,-14.88 -18.09,-15.88" fill="#9A7865" stroke="#171717" stroke-width="0.6"/><polygon points="14.99,2.17 15.05,-1.77 15.28,-2.76 15.93,-3.59 16.92,-4.14 18.08,-4.34 19.25,-4.14 20.24,-3.59 20.91,-2.76 21.15,-1.77 21.07,2.17 20.84,3.15 20.19,3.98 19.21,4.54 18.05,4.73 16.89,4.54 15.90,3.98 15.23,3.15" fill="#9A7865" stroke="#171717" stroke-width="0.6"/><polygon points="-18.98,-14.65 -17.93,-18.00 -17.26,-19.84 -14.98,-22.53 -11.74,-24.41 -8.04,-25.20 -4.43,-24.77 -1.45,-23.20 0.44,-20.71 1.18,-18.94 1.74,-15.67 0.72,-12.31 0.01,-10.49 -2.25,-7.78 -5.48,-5.89 -9.19,-5.09 -12.82,-5.52 -15.79,-7.11 -17.67,-9.62 -18.45,-11.37" fill="#594537" stroke="#171717" stroke-width="0.6"/><polygon points="-0.46,11.36 -0.23,10.37 0.43,9.53 1.43,8.97 2.60,8.77 3.77,8.97 4.76,9.53 5.43,10.37 5.67,11.36 5.64,15.28 5.41,16.27 4.75,17.11 3.76,17.67 2.59,17.87 1.42,17.67 0.43,17.11 -0.23,16.27 -0.46,15.28" fill="#9A7865" stroke="#171717" stroke-width="0.6"/><polygon points="1.34,-24.46 1.67,-25.83 1.97,-26.63 2.83,-27.70 4.11,-28.41 5.62,-28.66 5.63,-28.66 6.79,-28.47 7.14,-28.41 8.42,-27.70 9.28,-26.63 9.58,-25.83 9.91,-24.46 9.59,-23.09 9.28,-22.29 8.43,-21.22 7.14,-20.50 5.63,-20.25 4.11,-20.50 2.83,-21.22 1.97,-22.29 1.67,-23.09" fill="#9A7865" stroke="#171717" stroke-width="0.6"/><polygon points="-14.58,-8.18 -14.46,-13.75 -13.14,-16.06 -10.51,-20.01 -5.78,-22.18 0.35,-22.25 6.96,-20.20 13.05,-16.34 17.72,-11.24 20.23,-5.67 21.55,-2.52 21.52,3.10 20.08,5.36 17.50,9.37 12.77,11.59 6.60,11.65 -0.05,9.57 -6.14,5.65 -10.75,0.52 -11.95,-2.15" fill="#594537" stroke="#171717" stroke-width="0.6"/><polygon points="-16.95,-9.21 -16.61,-10.60 -16.32,-11.39 -15.45,-12.48 -14.15,-13.20 -12.63,-13.45 -11.10,-13.20 -9.82,-12.48 -8.96,-11.39 -8.64,-10.60 -8.32,-9.21 -8.66,-7.83 -8.95,-7.03 -9.82,-5.95 -11.11,-5.22 -12.64,-4.97 -14.17,-5.22 -15.45,-5.95 -16.31,-7.03 -16.63,-7.83" fill="#9A7865" stroke="#171717" stroke-width="0.6"/><polygon points="-12.20,-15.98 0.00,-26.14 20.98,-8.67 20.95,-7.32 8.77,2.99 -12.18,-14.63" fill="#806850" stroke="#171717" stroke-width="0.6"/><polygon points="15.20,11.15 15.45,10.45 15.99,9.57 16.73,8.65 17.58,7.84 18.39,7.25 19.04,6.97 19.43,7.06 59.18,43.11 59.23,43.52 58.95,44.21 58.39,45.08 57.63,46.00 56.79,46.83 55.99,47.44 55.36,47.75 54.99,47.69 15.28,11.57" fill="#9A7865" stroke="#171717" stroke-width="0.6"/></g><g id="E02"><polygon points="11.77,-97.40 12.64,-100.23 15.06,-101.30 36.18,-99.59 33.77,-79.74 32.82,-76.98 30.35,-75.99 26.74,-76.93 22.54,-79.62 18.38,-83.66 14.88,-88.45 12.56,-93.27" fill="#927451" stroke="#171717" stroke-width="0.6"/><polygon points="-6.37,-91.97 12.65,-107.31 43.87,-82.37 43.72,-78.61 24.77,-62.94 -6.35,-88.19" fill="#927451" stroke="#171717" stroke-width="0.6"/><polygon points="-23.43,-81.81 -22.82,-83.58 -21.98,-86.03 -20.09,-88.17 -17.44,-89.68 -16.90,-89.84 -14.60,-90.35 -14.43,-90.34 -11.51,-90.05 -9.14,-88.85 -7.66,-86.92 -7.04,-85.42 -6.66,-82.86 -7.55,-80.21 -8.11,-78.65 -9.99,-76.50 -12.64,-74.98 -13.18,-74.85 -15.49,-74.34 -15.66,-74.31 -18.58,-74.61 -20.95,-75.82 -22.42,-77.76 -23.06,-79.24" fill="#AF9169" stroke="#171717" stroke-width="0.6"/><polygon points="-14.50,-71.31 -13.95,-75.73 -12.95,-80.50 -10.49,-83.78 -8.07,-86.23 -4.96,-87.75 -1.09,-88.05 2.93,-87.07 6.52,-84.97 9.13,-82.06 11.87,-78.35 13.47,-74.07 14.51,-68.80 14.03,-64.35 12.89,-59.66 10.47,-56.35 7.98,-54.07 4.91,-52.54 1.08,-52.24 -2.90,-53.22 -6.44,-55.33 -8.99,-58.23 -11.80,-61.81 -13.33,-66.08" fill="#514236" stroke="#171717" stroke-width="0.6"/><polygon points="-44.29,-61.39 -24.73,-77.16 6.49,-51.52 6.47,-47.81 -13.02,-31.70 -44.14,-57.67" fill="#927451" stroke="#171717" stroke-width="0.6"/><polygon points="-1.91,-88.15 -1.41,-90.17 4.68,-103.70 10.64,-90.17 11.15,-88.15 10.66,-86.13 9.25,-84.41 7.13,-83.26 4.63,-82.85 2.12,-83.26 0.00,-84.41 -1.42,-86.13" fill="#514236" stroke="#171717" stroke-width="0.6"/><polygon points="-37.17,-39.71 -34.07,-60.28 -33.34,-63.03 -31.05,-63.98 -27.53,-62.98 -23.31,-60.17 -19.05,-55.96 -15.40,-51.02 -12.95,-46.12 -12.07,-42.01 -12.87,-39.33 -15.22,-38.47" fill="#927451" stroke="#171717" stroke-width="0.6"/><polygon points="-14.91,-77.64 -14.40,-79.68 -8.47,-93.11 -2.29,-79.68 -1.79,-77.64 -2.29,-75.59 -3.72,-73.85 -5.85,-72.69 -8.37,-72.29 -10.89,-72.69 -13.01,-73.85 -14.43,-75.59" fill="#514236" stroke="#171717" stroke-width="0.6"/></g><g id="E03"><polygon points="-8.24,-102.94 27.10,-131.27 67.84,-99.25 67.56,-94.66 32.38,-65.53 -8.20,-98.34" fill="#666453" stroke="#171717" stroke-width="0.6"/><polygon points="-28.13,-93.10 -27.53,-94.90 -26.68,-97.34 -24.77,-99.48 -22.10,-100.99 -21.58,-101.18 -19.26,-101.68 -17.01,-101.46 -16.15,-101.36 -13.77,-100.16 -12.29,-98.23 -11.65,-96.71 -11.27,-94.15 -12.18,-91.50 -12.73,-89.91 -14.63,-87.76 -17.29,-86.24 -17.83,-86.08 -20.14,-85.57 -20.33,-85.57 -23.26,-85.87 -25.64,-87.08 -27.11,-89.02 -27.77,-90.53" fill="#B7A987" stroke="#171717" stroke-width="0.6"/><polygon points="-16.38,-80.31 -16.37,-85.19 -15.20,-89.88 -12.90,-93.32 -9.92,-95.38 -6.65,-96.80 -2.38,-96.78 2.26,-95.33 6.57,-92.66 9.89,-89.18 12.86,-85.25 15.24,-80.33 16.42,-74.87 16.49,-69.95 15.16,-65.35 12.90,-61.87 9.82,-59.99 6.59,-58.57 2.35,-58.58 -2.24,-60.04 -6.49,-62.72 -9.73,-66.19 -12.77,-70.00 -15.06,-74.90" fill="#494B48" stroke="#171717" stroke-width="0.6"/><polygon points="-15.93,-100.47 -15.90,-102.77 -15.57,-105.31 -15.01,-107.68 -14.28,-109.55 -13.50,-110.61 -12.79,-110.71 39.91,-102.77 40.51,-101.89 40.85,-100.17 40.85,-97.87 40.53,-95.34 39.94,-92.98 39.15,-91.14 38.31,-90.11 37.53,-90.04 -15.14,-97.84 -15.66,-98.74" fill="#B7A987" stroke="#171717" stroke-width="0.6"/><polygon points="-1.93,-95.87 -1.42,-97.90 4.71,-111.64 10.71,-97.90 11.22,-95.87 10.73,-93.84 9.31,-92.12 7.18,-90.96 4.66,-90.56 2.14,-90.96 0.00,-92.12 -1.43,-93.84" fill="#494B48" stroke="#171717" stroke-width="0.6"/><polygon points="-65.42,-57.09 -28.59,-86.62 12.17,-53.25 12.12,-48.75 -24.57,-18.37 -65.15,-52.58" fill="#666453" stroke="#171717" stroke-width="0.6"/><polygon points="-15.02,-85.32 -14.50,-87.37 -8.53,-101.02 -2.30,-87.37 -1.80,-85.32 -2.31,-83.27 -3.74,-81.53 -5.89,-80.36 -8.43,-79.95 -10.96,-80.36 -13.10,-81.53 -14.53,-83.27" fill="#494B48" stroke="#171717" stroke-width="0.6"/><polygon points="-23.58,-51.14 -20.54,-104.55 -20.11,-105.34 -18.74,-105.97 -16.64,-106.34 -14.13,-106.40 -11.59,-106.13 -9.42,-105.58 -7.95,-104.83 -7.39,-104.00 -10.30,-50.56 -10.74,-49.85 -12.13,-49.30 -14.25,-48.98 -16.76,-48.94 -19.31,-49.20 -21.50,-49.71 -23.00,-50.39" fill="#B7A987" stroke="#171717" stroke-width="0.6"/></g><g id="E05"><polygon points="29.24,-144.67 30.97,-150.21 35.59,-152.53 80.09,-153.28 70.50,-112.48 68.51,-107.13 63.69,-105.11 56.83,-106.67 48.97,-111.52 41.27,-118.91 34.83,-127.76 30.61,-136.79" fill="#775638" stroke="#171717" stroke-width="0.6"/><polygon points="-12.04,-132.46 29.19,-165.03 40.30,-156.44 40.22,-154.02 -0.93,-121.22 -12.02,-130.07" fill="#B29867" stroke="#171717" stroke-width="0.6"/><polygon points="-42.24,-119.72 -41.66,-121.58 -40.79,-124.01 -38.85,-126.14 -36.15,-127.65 -35.64,-127.89 -33.30,-128.39 -31.04,-128.17 -30.14,-128.02 -27.74,-126.82 -26.26,-124.90 -25.60,-123.32 -25.23,-120.77 -25.84,-118.92 -26.70,-116.48 -28.62,-114.34 -31.32,-112.82 -31.83,-112.62 -34.17,-112.11 -36.43,-112.33 -37.34,-112.45 -39.74,-113.66 -41.21,-115.59 -41.90,-117.17" fill="#B29867" stroke="#171717" stroke-width="0.6"/><polygon points="-12.01,-129.67 25.52,-159.35 85.70,-112.65 85.22,-106.36 47.92,-75.43 -11.95,-123.34" fill="#775638" stroke="#171717" stroke-width="0.6"/><polygon points="-26.01,-96.93 -25.81,-104.63 -24.02,-111.60 -20.20,-117.07 -15.58,-120.03 -10.30,-122.34 -3.47,-122.41 3.89,-120.22 10.69,-116.10 15.89,-110.66 20.62,-104.90 24.29,-97.15 26.11,-89.04 26.09,-81.23 23.92,-74.45 20.22,-68.88 15.36,-66.33 10.18,-64.00 3.43,-63.93 -3.84,-66.14 -10.50,-70.29 -15.53,-75.72 -20.41,-81.21 -23.87,-88.90" fill="#45372D" stroke="#171717" stroke-width="0.6"/><polygon points="-1.95,-111.64 -1.44,-113.68 4.78,-127.86 10.87,-113.68 11.38,-111.64 10.89,-109.60 9.45,-107.86 7.28,-106.70 4.73,-106.29 2.17,-106.70 0.00,-107.86 -1.45,-109.60" fill="#45372D" stroke="#171717" stroke-width="0.6"/><polygon points="-85.64,-74.34 -42.15,-108.69 -31.04,-99.63 -30.98,-97.27 -74.38,-62.67 -85.46,-72.01" fill="#B29867" stroke="#171717" stroke-width="0.6"/><polygon points="-15.23,-101.02 -14.71,-103.08 -8.65,-117.17 -2.34,-103.08 -1.83,-101.02 -2.34,-98.95 -3.80,-97.20 -5.98,-96.02 -8.55,-95.61 -11.12,-96.02 -13.29,-97.20 -14.73,-98.95" fill="#45372D" stroke="#171717" stroke-width="0.6"/><polygon points="-81.52,-74.71 -42.05,-105.92 18.16,-56.80 18.05,-50.67 -21.21,-18.12 -81.06,-68.53" fill="#775638" stroke="#171717" stroke-width="0.6"/><polygon points="-79.17,-24.35 -65.10,-73.76 -60.97,-75.64 -54.45,-73.81 -46.52,-68.49 -38.43,-60.49 -31.47,-51.06 -26.75,-41.73 -25.00,-33.96 -26.43,-28.94 -30.78,-27.38" fill="#775638" stroke="#171717" stroke-width="0.6"/></g><g id="E06"><polygon points="8.17,-118.23 8.20,-122.90 29.84,-140.19 51.96,-122.90 51.75,-118.23 30.20,-100.69" fill="#B6B49F" stroke="#171717" stroke-width="0.6"/><polygon points="30.20,-100.69 30.33,-105.32 41.19,-114.15 59.90,-99.40 59.65,-94.78 48.84,-85.86" fill="#B6B49F" stroke="#171717" stroke-width="0.6"/><polygon points="-30.50,-98.79 -29.90,-100.60 -29.05,-103.04 -27.13,-105.18 -24.45,-106.69 -23.93,-106.89 -21.60,-107.40 -19.35,-107.17 -18.49,-107.06 -16.10,-105.86 -14.61,-103.93 -13.98,-102.39 -13.60,-99.83 -14.22,-98.03 -15.06,-95.59 -16.96,-93.44 -19.64,-91.91 -20.17,-91.75 -22.49,-91.24 -22.68,-91.25 -25.62,-91.54 -28.01,-92.75 -29.48,-94.69 -30.14,-96.22" fill="#B6B49F" stroke="#171717" stroke-width="0.6"/><polygon points="-10.10,-108.27 8.20,-122.90 49.04,-90.46 48.84,-85.86 30.62,-70.82 -10.05,-103.64" fill="#64685D" stroke="#171717" stroke-width="0.6"/><polygon points="-17.60,-89.96 -16.34,-94.62 -14.11,-98.13 -10.86,-100.00 -7.51,-101.36 -3.02,-101.19 1.93,-99.50 6.59,-96.55 10.27,-92.78 13.36,-88.73 16.14,-83.49 17.38,-77.94 17.73,-72.78 16.30,-68.22 14.13,-64.66 10.76,-62.99 7.45,-61.61 3.00,-61.79 -1.91,-63.49 -6.51,-66.45 -10.10,-70.21 -13.26,-74.13 -15.94,-79.35 -17.33,-84.86" fill="#414544" stroke="#171717" stroke-width="0.6"/><polygon points="-49.35,-76.90 -30.51,-91.95 10.33,-58.56 10.28,-54.03 -8.47,-38.55 -49.14,-72.33" fill="#64685D" stroke="#171717" stroke-width="0.6"/><polygon points="-1.93,-99.77 -1.43,-101.81 4.73,-115.65 10.75,-101.81 11.26,-99.77 10.77,-97.74 9.35,-96.01 7.21,-94.85 4.68,-94.45 2.15,-94.85 0.00,-96.01 -1.43,-97.74" fill="#414544" stroke="#171717" stroke-width="0.6"/><polygon points="-72.29,-58.56 -49.35,-76.90 -27.23,-58.56 -27.11,-54.03 -49.97,-35.42 -71.99,-54.03" fill="#B6B49F" stroke="#171717" stroke-width="0.6"/><polygon points="-15.07,-89.20 -14.55,-91.25 -8.56,-105.01 -2.31,-91.25 -1.81,-89.20 -2.32,-87.15 -3.76,-85.40 -5.91,-84.23 -8.46,-83.82 -11.00,-84.23 -13.15,-85.40 -14.58,-87.15" fill="#414544" stroke="#171717" stroke-width="0.6"/><polygon points="-38.66,-49.28 -27.23,-58.56 -8.51,-43.05 -8.47,-38.55 -19.85,-29.15 -38.49,-44.77" fill="#B6B49F" stroke="#171717" stroke-width="0.6"/></g><g id="E04"><polygon points="-54.87,-5.27 -50.30,-22.78 -38.25,-37.42 -20.61,-47.09 0.00,-50.47 20.61,-47.09 38.25,-37.42 50.30,-22.78 54.87,-5.27 51.09,12.51 39.37,27.81 21.40,38.15 0.00,41.80 -21.40,38.15 -39.37,27.81 -51.09,12.51" fill="#263E23" stroke="#171717" stroke-width="0.6"/><polygon points="-40.06,-28.76 -37.55,-40.27 -35.14,-44.57 -28.06,-53.40 -17.33,-59.09 -4.55,-60.84 8.40,-58.39 19.61,-52.09 27.39,-42.85 29.78,-38.42 33.19,-26.73 31.03,-15.07 28.25,-10.91 21.36,-1.87 10.61,4.04 -2.34,5.86 -15.46,3.30 -26.68,-3.22 -34.27,-12.65 -37.00,-16.96" fill="#709B40" stroke="#171717" stroke-width="0.6"/><polygon points="-35.61,6.97 -33.11,-3.89 -25.90,-12.94 -24.15,-14.73 -14.14,-20.21 -2.29,-22.01 9.64,-19.85 19.89,-14.06 21.59,-12.22 29.19,-2.94 32.14,8.01 29.94,18.99 22.86,28.29 20.90,29.94 10.84,35.62 -1.18,37.48 -13.29,35.24 -23.59,29.25 -25.49,27.54 -32.96,18.02" fill="#3F722E" stroke="#171717" stroke-width="0.6"/></g><g id="E07"><polygon points="-3.80,-112.53 -3.57,-114.31 -1.16,-122.51 -0.22,-124.13 1.28,-125.26 3.09,-125.74 4.96,-125.49 6.59,-124.55 7.74,-123.06 8.23,-121.25 7.99,-119.39 5.20,-111.32 4.30,-109.77 2.87,-108.68 1.13,-108.22 -0.66,-108.47 -2.23,-109.37 -3.33,-110.80" fill="#3D3D39" stroke="#171717" stroke-width="0.6"/><polygon points="27.08,-98.13 27.46,-99.94 28.52,-101.50 30.10,-102.56 31.96,-102.96 33.82,-102.64 35.39,-101.65 36.44,-100.14 42.52,-84.74 42.87,-83.00 42.51,-81.25 41.49,-79.75 39.97,-78.73 38.17,-78.35 36.39,-78.66 34.87,-79.62 33.87,-81.08 27.44,-96.33" fill="#3D3D39" stroke="#171717" stroke-width="0.6"/><polygon points="-16.78,-64.04 -1.24,-121.97 -1.05,-122.47 -0.18,-122.75 1.25,-122.75 3.00,-122.48 4.83,-121.97 6.43,-121.31 7.57,-120.60 8.08,-119.94 -7.37,-61.94 -7.56,-61.50 -8.43,-61.29 -9.86,-61.33 -11.62,-61.63 -13.45,-62.14 -15.07,-62.77 -16.24,-63.44" fill="#66645E" stroke="#171717" stroke-width="0.6"/><polygon points="70.59,-62.96 70.86,-64.78 71.82,-66.41 73.33,-67.61 75.16,-68.20 77.03,-68.10 78.66,-67.31 79.80,-65.95 93.01,-44.68 93.48,-43.01 93.22,-41.25 92.30,-39.67 90.84,-38.51 89.07,-37.94 87.25,-38.05 85.68,-38.83 84.58,-40.15 71.06,-61.25" fill="#3D3D39" stroke="#171717" stroke-width="0.6"/><polygon points="-57.41,-52.01 -57.39,-56.08 -56.49,-58.63 -54.58,-62.66 -51.08,-66.35 -46.52,-69.14 -41.59,-70.61 -37.03,-70.54 -33.54,-68.95 -31.63,-66.07 -30.54,-64.12 -30.51,-60.08 -31.46,-57.53 -33.32,-53.51 -36.79,-49.80 -41.35,-46.98 -46.30,-45.49 -50.87,-45.56 -54.37,-47.17 -56.25,-50.08" fill="#8F493B" stroke="#171717" stroke-width="0.6"/><polygon points="0.12,-51.95 27.75,-100.70 28.38,-100.73 29.55,-100.38 31.10,-99.70 32.77,-98.80 34.31,-97.81 35.50,-96.88 36.13,-96.17 36.13,-95.77 8.56,-47.02 7.95,-47.05 6.80,-47.45 5.27,-48.16 3.60,-49.07 2.04,-50.04 0.84,-50.93 0.16,-51.60" fill="#66645E" stroke="#171717" stroke-width="0.6"/><polygon points="96.12,-42.34 96.33,-44.13 97.24,-45.79 98.70,-47.08 100.50,-47.79 102.36,-47.82 104.00,-47.17 105.18,-45.92 122.95,-20.91 123.46,-19.30 123.27,-17.56 122.40,-15.94 120.98,-14.69 119.23,-14.01 117.42,-14.00 115.83,-14.65 114.69,-15.87 96.63,-40.69" fill="#3D3D39" stroke="#171717" stroke-width="0.6"/><polygon points="-51.49,-44.14 -48.77,-52.75 -47.11,-56.46 -41.18,-63.32 -32.76,-68.04 -23.12,-69.95 -13.69,-68.75 -5.86,-64.63 -0.82,-58.19 1.11,-54.62 2.71,-46.17 0.18,-37.51 -1.69,-33.87 -7.50,-26.91 -15.92,-22.07 -25.65,-20.11 -35.18,-21.34 -43.01,-25.57 -47.94,-32.13 -50.09,-35.62" fill="#66645E" stroke="#171717" stroke-width="0.6"/><polygon points="-141.24,-4.16 -140.67,-5.60 -110.62,-36.16 -109.45,-37.15 -107.87,-37.50 -106.12,-37.17 -104.46,-36.22 -103.13,-34.77 -102.35,-33.06 -102.24,-31.34 -102.80,-29.88 -133.07,0.47 -134.22,1.45 -135.77,1.82 -137.49,1.53 -139.12,0.61 -140.40,-0.80 -141.15,-2.47" fill="#3D3D39" stroke="#171717" stroke-width="0.6"/><polygon points="27.60,-31.67 72.32,-67.45 72.50,-67.31 73.12,-66.61 74.10,-65.44 75.28,-63.99 76.48,-62.48 77.52,-61.14 78.24,-60.18 78.53,-59.74 33.77,-23.94 33.43,-24.34 32.67,-25.27 31.60,-26.58 30.40,-28.09 29.23,-29.55 28.29,-30.75 27.72,-31.49" fill="#66645E" stroke="#171717" stroke-width="0.6"/><polygon points="-108.46,-33.74 -108.26,-35.58 -107.83,-37.04 -107.23,-37.89 -106.54,-38.00 -47.02,-39.25 -46.31,-38.62 -45.73,-37.33 -45.37,-35.58 -45.29,-33.65 -45.51,-31.83 -45.98,-30.39 -46.64,-29.56 -47.38,-29.46 -106.86,-28.04 -107.52,-28.70 -108.06,-30.01 -108.39,-31.78" fill="#66645E" stroke="#171717" stroke-width="0.6"/><polygon points="50.16,-13.50 98.01,-47.37 98.14,-47.21 98.70,-46.45 99.59,-45.21 100.69,-43.68 101.82,-42.09 102.81,-40.68 103.50,-39.68 103.80,-39.24 55.90,-5.35 55.55,-5.75 54.81,-6.72 53.80,-8.10 52.66,-9.69 51.59,-11.23 50.74,-12.50 50.23,-13.30" fill="#66645E" stroke="#171717" stroke-width="0.6"/><polygon points="-104.25,29.59 -103.92,28.16 -82.69,-10.81 -81.68,-11.87 -80.14,-12.39 -78.32,-12.31 -76.48,-11.64 -74.90,-10.47 -73.82,-8.98 -73.41,-7.41 -73.74,-5.98 -95.21,32.85 -96.21,33.92 -97.71,34.47 -99.51,34.42 -101.31,33.77 -102.84,32.62 -103.88,31.15" fill="#3D3D39" stroke="#171717" stroke-width="0.6"/><polygon points="-17.97,-9.49 -15.31,-22.23 -12.55,-27.82 -4.85,-37.59 6.87,-43.90 20.88,-45.85 35.11,-43.17 47.47,-36.24 56.12,-26.03 58.52,-20.31 62.39,-7.39 60.15,5.52 56.88,10.91 49.44,20.92 37.71,27.49 23.53,29.53 9.12,26.73 -3.24,19.53 -11.64,9.10 -14.52,3.55" fill="#66645E" stroke="#171717" stroke-width="0.6"/><polygon points="-81.09,-10.44 -80.75,-12.02 -80.01,-13.05 -79.01,-13.37 -31.54,-25.36 -30.39,-24.95 -29.29,-23.85 -28.42,-22.24 -27.91,-20.36 -27.84,-18.50 -28.22,-16.95 -28.99,-15.94 -30.03,-15.62 -77.42,-3.42 -78.55,-3.87 -79.63,-5.00 -80.49,-6.65 -81.00,-8.56" fill="#66645E" stroke="#171717" stroke-width="0.6"/><polygon points="-39.07,28.47 -39.03,26.80 -38.34,25.49 -7.95,-1.84 -6.72,-2.59 -5.13,-2.67 -3.44,-2.08 -1.90,-0.91 -0.75,0.67 -0.16,2.41 -0.22,4.06 -0.93,5.34 -31.12,32.90 -32.37,33.63 -33.98,33.70 -35.69,33.07 -37.26,31.86 -38.45,30.25" fill="#66645E" stroke="#171717" stroke-width="0.6"/><polygon points="-4.49,-35.95 9.83,-47.80 49.86,-14.90 49.76,-12.80 35.48,-0.61 -4.48,-33.82" fill="#959083" stroke="#171717" stroke-width="0.6"/><polygon points="-53.90,74.61 -53.52,73.30 -39.41,27.11 -38.33,26.14 -36.71,25.63 -34.79,25.66 -32.86,26.23 -31.21,27.25 -30.10,28.57 -29.69,29.98 -30.05,31.28 -44.42,77.41 -45.47,78.41 -47.07,78.94 -48.95,78.93 -50.84,78.37 -52.45,77.35 -53.52,76.03" fill="#3D3D39" stroke="#171717" stroke-width="0.6"/><polygon points="-13.78,49.06 -13.09,47.72 14.16,17.22 15.42,16.41 17.07,16.25 18.84,16.76 20.47,17.85 21.72,19.37 22.38,21.08 22.36,22.72 21.66,24.04 -5.36,54.76 -6.65,55.55 -8.32,55.69 -10.13,55.15 -11.80,54.02 -13.08,52.46 -13.77,50.72" fill="#66645E" stroke="#171717" stroke-width="0.6"/><polygon points="-23.95,101.42 -14.39,50.63 -13.99,49.42 -12.86,48.48 -11.18,47.97 -9.21,47.95 -7.24,48.44 -5.57,49.34 -4.46,50.54 -4.07,51.85 -13.87,102.58 -14.27,103.82 -15.37,104.79 -17.02,105.33 -18.96,105.36 -20.89,104.89 -22.52,103.97 -23.59,102.75" fill="#3D3D39" stroke="#171717" stroke-width="0.6"/></g><g id="E08"><polygon points="-6.96,-18.93 -6.96,-22.64 -5.12,-25.47 -4.35,-26.35 -1.21,-27.76 2.89,-27.76 7.34,-26.34 11.45,-23.72 14.63,-20.29 15.38,-18.91 17.26,-14.88 17.29,-11.15 15.47,-8.28 14.66,-7.42 11.52,-5.99 7.39,-6.00 2.93,-7.44 -1.19,-10.08 -4.34,-13.53 -5.13,-14.90" fill="#48392C" stroke="#171717" stroke-width="0.6"/><polygon points="-27.71,-1.65 -27.66,-5.41 -25.78,-8.28 -25.04,-9.15 -21.87,-10.58 -17.74,-10.58 -13.27,-9.14 -9.14,-6.47 -5.98,-2.99 -5.19,-1.63 -3.33,2.46 -3.33,6.25 -5.20,9.16 -5.98,10.00 -9.16,11.45 -13.31,11.45 -17.80,9.99 -21.93,7.30 -25.06,3.80 -25.89,2.44" fill="#48392C" stroke="#171717" stroke-width="0.6"/><polygon points="2.41,-12.60 2.49,-48.31 3.11,-50.88 4.87,-53.05 7.51,-54.50 10.62,-55.01 13.73,-54.50 16.38,-53.05 18.17,-50.88 18.81,-48.31 18.18,-12.60 17.60,-10.07 15.90,-7.92 13.35,-6.49 10.32,-5.98 7.30,-6.49 4.73,-7.92 3.01,-10.07" fill="#8B3227" stroke="#171717" stroke-width="0.6"/><polygon points="-18.96,-30.61 -18.31,-33.22 -16.51,-35.43 -13.84,-36.90 -10.70,-37.42 -7.57,-36.90 -4.91,-35.43 -3.13,-33.22 -2.51,-30.61 -2.43,4.77 -3.04,7.34 -4.76,9.53 -7.35,10.99 -10.40,11.50 -13.45,10.99 -16.02,9.53 -17.73,7.34 -18.32,4.77" fill="#8B3227" stroke="#171717" stroke-width="0.6"/><polygon points="-35.82,-40.44 3.53,-72.57 35.72,-46.35 35.37,-35.75 -3.59,-3.02 -35.46,-29.87" fill="#48392C" stroke="#171717" stroke-width="0.6"/><polygon points="4.16,-68.43 4.51,-71.23 5.92,-73.64 15.09,-82.57 17.39,-84.25 20.19,-84.88 23.07,-84.38 25.60,-82.81 27.39,-80.43 28.16,-77.59 27.81,-74.72 26.38,-72.25 16.92,-63.58 14.68,-61.94 11.95,-61.31 9.13,-61.80 6.66,-63.32 4.91,-65.65" fill="#8B3227" stroke="#171717" stroke-width="0.6"/><polygon points="1.50,-48.49 1.67,-169.94 1.97,-171.14 2.84,-172.15 4.14,-172.83 5.68,-173.07 7.22,-172.83 8.52,-172.15 9.40,-171.14 9.71,-169.94 8.72,-48.49 8.45,-47.35 7.67,-46.38 6.50,-45.73 5.11,-45.50 3.73,-45.73 2.56,-46.38 1.77,-47.35" fill="#48392C" stroke="#171717" stroke-width="0.6"/><polygon points="-23.66,-52.98 -22.01,-60.38 -19.59,-67.38 -14.21,-73.49 -10.96,-77.05 -5.18,-80.38 1.36,-81.85 7.70,-81.23 12.88,-78.63 16.71,-75.54 20.92,-70.06 22.49,-63.42 23.63,-56.13 21.68,-48.82 19.42,-41.84 14.17,-35.68 10.77,-32.44 5.11,-29.09 -1.35,-27.60 -7.60,-28.23 -12.68,-30.86 -16.69,-33.60 -20.80,-39.15 -22.67,-45.63" fill="#8B3227" stroke="#171717" stroke-width="0.6"/><polygon points="-43.65,-31.30 -42.65,-33.76 -40.75,-35.52 -25.25,-49.64 -22.68,-50.43 -19.87,-50.12 -17.24,-48.74 -15.20,-46.51 -14.04,-43.77 -13.95,-40.93 -14.94,-38.43 -16.87,-36.63 -32.58,-22.80 -35.10,-22.00 -37.86,-22.29 -40.45,-23.63 -42.46,-25.82 -43.58,-28.51" fill="#8B3227" stroke="#171717" stroke-width="0.6"/><polygon points="-25.62,-99.19 -11.46,-95.65 -10.45,-95.20 -10.09,-94.02 -10.42,-92.27 -11.41,-90.23 -12.89,-88.21 -14.65,-86.50 -16.41,-85.37 -17.92,-84.99 -18.95,-85.41" fill="#8B3227" stroke="#171717" stroke-width="0.6"/><polygon points="4.58,-92.79 27.58,-106.84 17.49,-81.88 16.95,-82.10 15.51,-83.12 13.40,-84.78 10.93,-86.82 8.48,-88.93 6.42,-90.81 5.05,-92.17" fill="#8B3227" stroke="#171717" stroke-width="0.6"/><polygon points="-21.30,-81.89 -20.15,-87.30 -18.97,-90.95 -15.61,-95.11 -10.45,-97.80 -8.90,-98.42 -4.16,-99.04 0.65,-98.14 1.98,-97.43 7.39,-94.43 11.13,-90.05 12.30,-86.33 13.92,-80.83 12.87,-75.38 11.56,-71.78 8.25,-67.58 3.10,-64.85 1.50,-64.38 -3.22,-63.75 -8.01,-64.66 -9.38,-65.23 -14.77,-68.27 -18.46,-72.69 -19.76,-76.36" fill="#8B3227" stroke="#171717" stroke-width="0.6"/><polygon points="-28.16,-61.63 -15.75,-76.33 -13.67,-77.38 -11.20,-77.21 -8.71,-75.82 -6.59,-73.44 -5.16,-70.42 -4.64,-67.23 -5.11,-64.37 -6.50,-62.26 -8.59,-61.23" fill="#8B3227" stroke="#171717" stroke-width="0.6"/><polygon points="-3.67,-161.54 -2.96,-164.33 5.73,-178.45 14.24,-164.33 14.97,-161.54 14.28,-158.75 12.27,-156.37 9.25,-154.78 5.67,-154.22 2.09,-154.78 -0.94,-156.37 -2.97,-158.75" fill="#B3ABA0" stroke="#171717" stroke-width="0.6"/></g><g id="E09"><polygon points="-6.96,-18.93 -6.96,-22.64 -5.12,-25.47 -4.35,-26.35 -1.21,-27.76 2.89,-27.76 7.34,-26.34 11.45,-23.72 14.63,-20.29 15.38,-18.91 17.26,-14.88 17.29,-11.15 15.47,-8.28 14.66,-7.42 11.52,-5.99 7.39,-6.00 2.93,-7.44 -1.19,-10.08 -4.34,-13.53 -5.13,-14.90" fill="#4E4031" stroke="#171717" stroke-width="0.6"/><polygon points="-27.71,-1.65 -27.66,-5.41 -25.78,-8.28 -25.04,-9.15 -21.87,-10.58 -17.74,-10.58 -13.27,-9.14 -9.14,-6.47 -5.98,-2.99 -5.19,-1.63 -3.33,2.46 -3.33,6.25 -5.20,9.16 -5.98,10.00 -9.16,11.45 -13.31,11.45 -17.80,9.99 -21.93,7.30 -25.06,3.80 -25.89,2.44" fill="#4E4031" stroke="#171717" stroke-width="0.6"/><polygon points="2.41,-12.60 2.49,-48.31 3.11,-50.88 4.87,-53.05 7.51,-54.50 10.62,-55.01 13.73,-54.50 16.38,-53.05 18.17,-50.88 18.81,-48.31 18.18,-12.60 17.60,-10.07 15.90,-7.92 13.35,-6.49 10.32,-5.98 7.30,-6.49 4.73,-7.92 3.01,-10.07" fill="#793127" stroke="#171717" stroke-width="0.6"/><polygon points="-18.96,-30.61 -18.31,-33.22 -16.51,-35.43 -13.84,-36.90 -10.70,-37.42 -7.57,-36.90 -4.91,-35.43 -3.13,-33.22 -2.51,-30.61 -2.43,4.77 -3.04,7.34 -4.76,9.53 -7.35,10.99 -10.40,11.50 -13.45,10.99 -16.02,9.53 -17.73,7.34 -18.32,4.77" fill="#793127" stroke="#171717" stroke-width="0.6"/><polygon points="-35.82,-40.44 3.53,-72.57 35.72,-46.35 35.37,-35.75 -3.59,-3.02 -35.46,-29.87" fill="#4E4031" stroke="#171717" stroke-width="0.6"/><polygon points="4.16,-68.43 4.51,-71.23 5.92,-73.64 15.09,-82.57 17.39,-84.25 20.19,-84.88 23.07,-84.38 25.60,-82.81 27.39,-80.43 28.16,-77.59 27.81,-74.72 26.38,-72.25 16.92,-63.58 14.68,-61.94 11.95,-61.31 9.13,-61.80 6.66,-63.32 4.91,-65.65" fill="#793127" stroke="#171717" stroke-width="0.6"/><polygon points="-23.66,-52.98 -22.01,-60.38 -19.59,-67.38 -14.21,-73.49 -10.96,-77.05 -5.18,-80.38 1.36,-81.85 7.70,-81.23 12.88,-78.63 16.71,-75.54 20.92,-70.06 22.49,-63.42 23.63,-56.13 21.68,-48.82 19.42,-41.84 14.17,-35.68 10.77,-32.44 5.11,-29.09 -1.35,-27.60 -7.60,-28.23 -12.68,-30.86 -16.69,-33.60 -20.80,-39.15 -22.67,-45.63" fill="#793127" stroke="#171717" stroke-width="0.6"/><polygon points="-43.65,-31.30 -42.65,-33.76 -40.75,-35.52 -25.25,-49.64 -22.68,-50.43 -19.87,-50.12 -17.24,-48.74 -15.20,-46.51 -14.04,-43.77 -13.95,-40.93 -14.94,-38.43 -16.87,-36.63 -32.58,-22.80 -35.10,-22.00 -37.86,-22.29 -40.45,-23.63 -42.46,-25.82 -43.58,-28.51" fill="#793127" stroke="#171717" stroke-width="0.6"/><polygon points="0.29,-57.51 0.33,-206.24 0.75,-207.84 1.94,-209.20 3.71,-210.11 5.81,-210.43 7.90,-210.11 9.68,-209.20 10.88,-207.84 11.30,-206.24 9.93,-57.51 9.57,-56.00 8.53,-54.71 6.97,-53.85 5.12,-53.55 3.27,-53.85 1.71,-54.71 0.66,-56.00" fill="#4E4031" stroke="#171717" stroke-width="0.6"/><polygon points="1.80,-83.31 1.83,-98.42 27.17,-118.86 56.76,-95.47 55.99,-80.38 31.00,-59.63" fill="#4E4031" stroke="#171717" stroke-width="0.6"/><polygon points="-25.62,-99.19 -11.46,-95.65 -10.45,-95.20 -10.09,-94.02 -10.42,-92.27 -11.41,-90.23 -12.89,-88.21 -14.65,-86.50 -16.41,-85.37 -17.92,-84.99 -18.95,-85.41" fill="#793127" stroke="#171717" stroke-width="0.6"/><polygon points="4.58,-92.79 27.58,-106.84 17.49,-81.88 16.95,-82.10 15.51,-83.12 13.40,-84.78 10.93,-86.82 8.48,-88.93 6.42,-90.81 5.05,-92.17" fill="#793127" stroke="#171717" stroke-width="0.6"/><polygon points="-21.30,-81.89 -20.15,-87.30 -18.97,-90.95 -15.61,-95.11 -10.45,-97.80 -8.90,-98.42 -4.16,-99.04 0.65,-98.14 1.98,-97.43 7.39,-94.43 11.13,-90.05 12.30,-86.33 13.92,-80.83 12.87,-75.38 11.56,-71.78 8.25,-67.58 3.10,-64.85 1.50,-64.38 -3.22,-63.75 -8.01,-64.66 -9.38,-65.23 -14.77,-68.27 -18.46,-72.69 -19.76,-76.36" fill="#793127" stroke="#171717" stroke-width="0.6"/><polygon points="-52.23,-54.83 -25.86,-76.09 3.74,-51.76 3.68,-36.97 -22.32,-15.39 -51.51,-40.02" fill="#4E4031" stroke="#171717" stroke-width="0.6"/><polygon points="-29.97,-52.47 32.94,-103.67 49.71,-90.35 49.57,-87.30 -13.16,-35.53 -29.89,-49.47" fill="#C0AC86" stroke="#171717" stroke-width="0.6"/><polygon points="-28.16,-61.63 -15.75,-76.33 -13.67,-77.38 -11.20,-77.21 -8.71,-75.82 -6.59,-73.44 -5.16,-70.42 -4.64,-67.23 -5.11,-64.37 -6.50,-62.26 -8.59,-61.23" fill="#793127" stroke="#171717" stroke-width="0.6"/><polygon points="3.49,-189.26 4.30,-192.42 14.50,-212.90 24.09,-192.42 24.94,-189.26 24.16,-186.08 21.86,-183.38 18.39,-181.58 14.28,-180.94 10.15,-181.58 6.65,-183.38 4.32,-186.08" fill="#B8B1A3" stroke="#171717" stroke-width="0.6"/><polygon points="-13.65,-176.00 -12.81,-179.20 -2.92,-199.53 7.10,-179.20 7.93,-176.00 7.12,-172.78 4.78,-170.05 1.27,-168.22 -2.87,-167.58 -7.02,-168.22 -10.52,-170.05 -12.85,-172.78" fill="#B8B1A3" stroke="#171717" stroke-width="0.6"/></g><g id="E10"><polygon points="-0.45,-33.92 0.28,-42.49 5.09,-49.25 6.80,-50.99 14.35,-54.66 23.87,-55.21 33.94,-52.56 43.06,-47.10 49.87,-39.61 51.56,-36.96 55.29,-27.89 54.77,-19.21 50.04,-12.27 48.16,-10.65 40.58,-6.86 30.94,-6.29 20.75,-9.03 11.60,-14.63 4.91,-22.22 3.07,-24.83" fill="#343038" stroke="#171717" stroke-width="0.6"/><polygon points="-13.47,-153.90 12.73,-152.31 14.32,-151.44 15.43,-149.81 15.88,-147.67 15.62,-145.35 14.68,-143.19 13.21,-141.53 11.42,-140.60 9.59,-140.57 7.99,-141.42" fill="#BFA44D" stroke="#171717" stroke-width="0.6"/><polygon points="-19.41,-149.26 6.74,-147.57 8.34,-146.71 9.45,-145.08 9.91,-142.94 9.65,-140.61 8.71,-138.45 7.23,-136.78 5.43,-135.85 3.59,-135.81 1.98,-136.66" fill="#BFA44D" stroke="#171717" stroke-width="0.6"/><polygon points="-25.37,-144.60 0.71,-142.82 2.32,-141.95 3.44,-140.33 3.91,-138.19 3.65,-135.86 2.70,-133.69 1.22,-132.01 -0.59,-131.08 -2.44,-131.03 -4.05,-131.88" fill="#BFA44D" stroke="#171717" stroke-width="0.6"/><polygon points="-56.28,12.40 -55.32,3.47 -50.23,-3.56 -48.70,-5.18 -40.89,-9.00 -31.16,-9.58 -20.95,-6.82 -11.78,-1.12 -5.01,6.68 -3.11,9.23 0.46,18.68 -0.29,27.72 -5.28,34.96 -7.00,36.45 -14.84,40.39 -24.69,40.99 -35.02,38.13 -44.22,32.29 -50.86,24.39 -52.92,21.87" fill="#343038" stroke="#171717" stroke-width="0.6"/><polygon points="-0.75,-137.33 -0.55,-143.05 1.45,-148.34 4.94,-152.39 9.36,-154.57 14.05,-154.57 48.22,-150.75 52.51,-148.51 55.69,-144.38 57.27,-138.99 57.04,-133.16 55.02,-127.75 51.51,-123.58 47.05,-121.29 42.30,-121.22 8.31,-125.95 4.05,-128.08 0.86,-132.07" fill="#343038" stroke="#171717" stroke-width="0.6"/><polygon points="25.42,-21.98 26.71,-74.51 28.19,-80.90 32.56,-86.30 39.13,-89.89 46.92,-91.14 54.77,-89.89 61.50,-86.30 66.10,-80.90 67.86,-74.51 64.60,-21.98 63.28,-15.71 59.16,-10.37 52.86,-6.78 45.34,-5.52 37.77,-6.78 31.32,-10.37 26.99,-15.71" fill="#343038" stroke="#171717" stroke-width="0.6"/><polygon points="-135.51,-58.55 -110.63,-54.90 -108.84,-54.09 -107.57,-52.48 -107.01,-50.32 -107.24,-47.92 -108.23,-45.65 -109.83,-43.86 -111.80,-42.82 -113.84,-42.68 -115.64,-43.48" fill="#BFA44D" stroke="#171717" stroke-width="0.6"/><polygon points="-141.99,-53.48 -117.19,-49.72 -115.39,-48.92 -114.11,-47.31 -113.54,-45.14 -113.77,-42.74 -114.77,-40.47 -116.38,-38.67 -118.35,-37.62 -120.40,-37.48 -122.21,-38.27" fill="#BFA44D" stroke="#171717" stroke-width="0.6"/><polygon points="-81.94,-139.13 -62.41,-140.56 -58.75,-140.78 -55.76,-139.20 -53.91,-136.07 -53.45,-131.87 -54.46,-127.24 -56.77,-122.87 -60.04,-119.42 -63.79,-117.40 -67.44,-117.12 -70.45,-118.64 -72.36,-121.75" fill="#343038" stroke="#171717" stroke-width="0.6"/><polygon points="-148.50,-48.39 -123.79,-44.51 -121.97,-43.71 -120.68,-42.11 -120.11,-39.94 -120.34,-37.53 -121.33,-35.26 -122.95,-33.45 -124.94,-32.40 -127.00,-32.25 -128.82,-33.03" fill="#BFA44D" stroke="#171717" stroke-width="0.6"/><polygon points="-32.18,-26.05 -30.49,-32.73 -25.88,-38.36 -19.06,-42.11 -11.07,-43.43 -3.08,-42.11 3.70,-38.36 8.25,-32.73 9.88,-26.05 9.39,25.21 7.89,31.74 3.55,37.31 -2.97,41.05 -10.68,42.37 -18.38,41.05 -24.88,37.31 -29.16,31.74 -30.60,25.21" fill="#343038" stroke="#171717" stroke-width="0.6"/><polygon points="27.01,-139.42 29.66,-146.25 34.69,-151.52 41.32,-154.42 54.32,-157.48 61.85,-157.56 68.85,-154.70 74.26,-149.34 77.26,-142.30 77.39,-134.63 74.64,-127.51 69.42,-122.01 62.53,-118.97 49.19,-117.57 41.98,-117.46 35.25,-120.17 30.04,-125.29 27.15,-132.05" fill="#58505A" stroke="#171717" stroke-width="0.6"/><polygon points="-76.50,-118.76 -74.75,-125.11 -72.02,-133.16 -65.75,-140.08 -62.00,-142.20 -55.18,-145.87 -47.40,-147.35 -39.81,-146.42 -36.95,-145.56 -28.81,-141.40 -23.62,-134.90 -21.46,-129.33 -19.89,-120.81 -22.62,-112.07 -24.44,-106.47 -30.58,-99.45 -39.41,-94.56 -41.23,-93.88 -48.96,-92.37 -56.50,-93.32 -59.49,-93.83 -67.61,-98.10 -72.68,-104.71 -75.14,-110.16" fill="#58505A" stroke="#171717" stroke-width="0.6"/><polygon points="-131.29,-34.05 -131.13,-40.00 -128.98,-45.59 -125.16,-49.96 -120.28,-52.44 -115.09,-52.66 -83.53,-45.25 -78.73,-43.14 -75.15,-39.00 -73.32,-33.48 -73.51,-27.40 -75.68,-21.68 -79.53,-17.17 -84.46,-14.56 -89.75,-14.25 -121.10,-22.66 -125.85,-24.67 -129.43,-28.67" fill="#343038" stroke="#171717" stroke-width="0.6"/><polygon points="7.55,-134.87 9.50,-147.68 12.73,-155.96 20.30,-165.56 32.45,-171.51 37.05,-172.73 48.59,-173.84 60.58,-171.32 71.24,-165.53 76.70,-162.18 86.77,-151.49 91.53,-139.18 94.09,-129.60 92.63,-116.57 88.70,-108.58 81.42,-98.70 69.30,-92.49 54.20,-90.97 52.92,-90.93 41.05,-93.53 38.52,-94.40 24.75,-102.20 15.01,-113.12 10.75,-125.42" fill="#58505A" stroke="#171717" stroke-width="0.6"/><polygon points="-63.98,-90.87 -57.79,-113.36 -53.44,-127.04 -38.36,-144.47 -16.36,-155.95 -10.50,-157.92 9.49,-161.04 29.52,-157.92 35.06,-155.95 57.16,-144.47 72.39,-127.04 76.47,-113.36 82.86,-90.87 78.09,-67.91 71.83,-54.99 57.65,-36.82 35.74,-24.52 9.55,-20.17 -16.68,-24.52 -38.69,-36.82 -53.02,-54.99 -59.01,-67.91" fill="#343038" stroke="#171717" stroke-width="0.6"/><polygon points="-103.45,-32.99 -102.38,-39.85 -98.91,-45.13 -59.90,-68.71 -54.53,-71.64 -48.10,-71.69 -41.58,-68.87 -35.94,-63.63 -32.01,-56.76 -30.39,-49.27 -31.32,-42.28 -34.67,-36.84 -39.97,-33.79 -79.66,-11.40 -86.01,-11.17 -92.49,-13.78 -98.10,-18.86 -101.95,-25.61" fill="#58505A" stroke="#171717" stroke-width="0.6"/><polygon points="-73.47,-70.50 -70.96,-84.09 -68.35,-92.05 -60.17,-102.24 -47.42,-108.55 -43.52,-109.14 -31.59,-110.33 -19.34,-107.65 -16.15,-106.62 -2.21,-98.65 7.76,-87.31 10.70,-78.98 15.48,-64.90 13.48,-51.07 10.14,-43.42 2.27,-32.93 -10.46,-26.34 -26.07,-24.73 -42.09,-28.37 -55.99,-36.65 -65.60,-48.24 -69.22,-56.31" fill="#58505A" stroke="#171717" stroke-width="0.6"/><polygon points="12.62,-108.27 14.28,-113.27 17.47,-117.12 21.69,-119.23 26.29,-119.29 30.57,-117.29 44.70,-106.58 31.08,-94.49 26.90,-92.35 22.30,-92.25 17.99,-94.21 14.63,-97.95 12.74,-102.89" fill="#BFA44D" stroke="#171717" stroke-width="0.6"/></g><g id="E11"><polygon points="-20.24,-64.32 -15.16,-72.09 -12.97,-74.23 -4.15,-78.01 7.46,-77.83 20.17,-73.71 32.09,-66.24 41.43,-56.50 43.48,-52.96 49.24,-41.56 49.72,-31.00 44.78,-22.93 42.29,-20.99 33.42,-17.05 21.61,-17.24 8.72,-21.53 -3.23,-29.22 -12.40,-39.09 -14.67,-42.58 -20.09,-53.97" fill="#291F22" stroke="#171717" stroke-width="0.6"/><polygon points="-81.33,-3.98 -81.19,-14.80 -75.78,-22.93 -73.82,-24.89 -64.70,-28.84 -52.82,-28.65 -39.95,-24.34 -27.97,-16.53 -18.68,-6.35 -16.35,-2.93 -10.78,9.00 -10.58,20.05 -15.86,28.49 -18.12,30.23 -27.30,34.35 -39.38,34.15 -52.44,29.67 -64.45,21.62 -73.54,11.30 -76.11,7.93" fill="#291F22" stroke="#171717" stroke-width="0.6"/><polygon points="92.95,-249.49 94.61,-254.32 98.52,-256.65 146.40,-266.93 123.86,-221.06 119.84,-218.91 114.25,-219.62 107.95,-223.05 101.87,-228.66 96.89,-235.63 93.76,-242.93" fill="#A9A39B" stroke="#171717" stroke-width="0.6"/><polygon points="6.99,-38.47 7.44,-107.42 9.28,-114.95 14.55,-121.29 22.43,-125.50 31.74,-126.98 41.10,-125.50 49.11,-121.29 54.56,-114.95 56.63,-107.42 53.16,-38.47 51.57,-31.13 46.68,-24.86 39.22,-20.66 30.33,-19.18 21.41,-20.66 13.83,-24.86 8.77,-31.13" fill="#6B2522" stroke="#171717" stroke-width="0.6"/><polygon points="-58.01,-54.75 -55.89,-62.65 -50.29,-69.30 -42.09,-73.72 -32.51,-75.27 -22.98,-73.72 -14.90,-69.30 -9.51,-62.65 -7.62,-54.75 -7.15,12.48 -8.97,20.16 -14.15,26.71 -21.90,31.11 -31.03,32.66 -40.12,31.11 -47.75,26.71 -52.75,20.16 -54.38,12.48" fill="#6B2522" stroke="#171717" stroke-width="0.6"/><polygon points="-242.38,29.81 134.21,-265.07 135.34,-265.72 136.91,-265.58 138.68,-264.66 140.39,-263.11 141.77,-261.16 142.61,-259.11 142.78,-257.28 142.26,-255.94 -233.35,40.44 -234.05,40.70 -235.33,40.11 -236.99,38.76 -238.78,36.87 -240.43,34.71 -241.69,32.61 -242.38,30.89" fill="#B7A181" stroke="#171717" stroke-width="0.6"/><polygon points="3.46,-173.75 4.19,-181.11 7.60,-187.45 13.16,-191.81 43.92,-210.56 51.17,-212.36 58.67,-211.09 65.31,-206.96 70.09,-200.60 72.28,-192.97 71.56,-185.21 68.03,-178.50 62.21,-173.86 30.40,-157.31 23.55,-155.53 16.42,-156.65 10.09,-160.51 5.53,-166.52" fill="#6B2522" stroke="#171717" stroke-width="0.6"/><polygon points="131.39,-267.76 135.85,-279.64 145.88,-285.63 236.43,-291.87 212.38,-210.38 206.93,-199.14 196.23,-194.25 182.06,-196.21 166.56,-204.54 151.92,-217.94 140.16,-234.50 132.95,-251.93" fill="#A33A29" stroke="#171717" stroke-width="0.6"/><polygon points="-74.83,-115.57 -70.48,-138.35 -62.03,-159.85 -48.36,-175.81 -34.73,-190.25 -16.06,-200.47 4.88,-205.04 25.05,-203.34 41.56,-195.60 53.17,-185.36 66.59,-168.99 70.64,-148.42 74.45,-126.40 67.50,-104.38 60.60,-83.04 44.20,-63.83 33.16,-54.86 15.48,-44.37 -4.72,-39.61 -24.22,-41.38 -39.89,-49.39 -53.22,-56.57 -65.63,-73.71 -72.49,-92.86" fill="#6B2522" stroke="#171717" stroke-width="0.6"/><polygon points="33.70,-201.37 34.00,-212.04 131.03,-287.09 232.70,-215.74 230.69,-205.06 134.81,-124.71" fill="#A33A29" stroke="#171717" stroke-width="0.6"/><polygon points="72.09,-222.17 72.30,-225.78 131.38,-271.84 187.18,-232.39 186.64,-228.77 127.84,-180.91" fill="#291F22" stroke="#171717" stroke-width="0.6"/><polygon points="-117.07,-80.07 -116.49,-87.56 -113.19,-93.89 -107.69,-98.10 -64.83,-126.02 -57.70,-127.49 -50.24,-125.84 -43.57,-121.36 -38.67,-114.71 -36.28,-106.89 -36.76,-99.07 -40.05,-92.43 -45.67,-87.97 -89.61,-62.16 -96.44,-60.61 -103.64,-62.03 -110.11,-66.23 -114.82,-72.57" fill="#6B2522" stroke="#171717" stroke-width="0.6"/><polygon points="-63.69,-222.90 -32.33,-221.77 -29.17,-219.81 -27.63,-215.91 -27.91,-210.66 -29.96,-204.86 -33.47,-199.37 -37.91,-195.00 -42.63,-192.41 -46.92,-192.00 -50.13,-193.85" fill="#291F22" stroke="#171717" stroke-width="0.6"/><polygon points="-58.33,-188.78 -55.48,-198.72 -51.35,-210.62 -41.82,-220.83 -35.86,-224.53 -25.47,-229.96 -13.58,-232.17 -1.96,-230.84 2.05,-229.00 14.56,-222.94 22.66,-213.40 25.55,-204.61 28.18,-192.06 24.23,-179.10 21.06,-170.34 11.85,-159.89 -1.57,-152.57 -4.70,-151.24 -16.48,-148.96 -28.01,-150.34 -32.33,-151.38 -44.81,-157.70 -52.61,-167.51 -56.19,-176.03" fill="#6B2522" stroke="#171717" stroke-width="0.6"/><polygon points="-5.40,-227.22 -4.28,-231.84 35.88,-283.81 27.55,-221.47 26.51,-216.83 23.13,-213.31 17.88,-211.47 11.58,-211.59 5.20,-213.66 -0.28,-217.37 -4.00,-222.14" fill="#B7A181" stroke="#171717" stroke-width="0.6"/><polygon points="-53.39,-188.41 -51.90,-194.52 -41.27,-226.18 -19.76,-194.58 -18.55,-188.47 -20.00,-182.33 -23.89,-177.12 -29.64,-173.62 -36.36,-172.39 -43.01,-173.60 -48.59,-177.08 -52.23,-182.29" fill="#B7A181" stroke="#171717" stroke-width="0.6"/><polygon points="-178.31,-47.83 -65.50,-135.09 36.64,-52.15 36.30,-42.15 -75.65,51.67 -176.64,-37.86" fill="#A33A29" stroke="#171717" stroke-width="0.6"/><polygon points="-148.91,-53.35 -79.57,-107.40 -23.60,-61.11 -23.52,-57.72 -92.73,-1.39 -148.45,-49.97" fill="#291F22" stroke="#171717" stroke-width="0.6"/><polygon points="-202.14,61.03 -155.46,-53.06 -148.32,-56.59 -136.05,-52.62 -120.47,-41.50 -104.10,-24.92 -89.66,-5.61 -79.58,13.19 -75.41,28.41 -77.64,37.74 -85.68,39.97" fill="#A33A29" stroke="#171717" stroke-width="0.6"/></g><filter id="gray"><feColorMatrix type="saturate" values="0"/></filter></defs>
<rect width="1280" height="1744" fill="#171717"/>
<g font-family="sans-serif" fill="#F2F2F2"><text x="24" y="38" font-size="26">A-03 / CREATURES AT DEFAULT CAMERA</text><text x="24" y="68" font-size="17" fill="#C4C4C4">1280×720 camera crops · boom1200 cm · pitch−55° · yaw45° · HFOV45°</text><text x="24" y="96" font-size="16" fill="#E9BF79">Prototype · all dimensions proposed · crop translation only · no per-entity enlargement</text>
<rect x="8.0" y="125" width="410.6666666666667" height="323" rx="4" fill="#242424"/>
<text x="20.0" y="151" font-size="18">Human ruler</text>
<text x="20.0" y="175" font-size="16" fill="#C4C4C4">R35 / HH90 · body175</text>
<g transform="translate(213.72 355.47)"><use href="#P-BodyA"/></g>
<text x="20.0" y="439" font-size="16" fill="#C4C4C4">+X front · shared camera / physical cm</text>
<rect x="434.6666666666667" y="125" width="410.6666666666667" height="323" rx="4" fill="#242424"/>
<text x="446.6666666666667" y="151" font-size="18">E01 · Brown Rat</text>
<text x="446.6666666666667" y="175" font-size="16" fill="#C4C4C4">R25 / HH25 · tail45</text>
<g transform="translate(620.08 355.47)"><use href="#E01"/></g>
<text x="446.6666666666667" y="439" font-size="16" fill="#C4C4C4">+X front · shared camera / physical cm</text>
<rect x="861.3333333333334" y="125" width="410.6666666666667" height="323" rx="4" fill="#242424"/>
<text x="873.3333333333334" y="151" font-size="18">E04 · Green Slime</text>
<text x="873.3333333333334" y="175" font-size="16" fill="#C4C4C4">R40 / HH40 · footprint90</text>
<g transform="translate(1066.67 355.47)"><use href="#E04"/></g>
<text x="873.3333333333334" y="439" font-size="16" fill="#C4C4C4">+X front · shared camera / physical cm</text>
<rect x="8.0" y="458" width="304.0" height="281" rx="4" fill="#242424"/>
<text x="20.0" y="484" font-size="18">E02 · Bat</text>
<text x="20.0" y="508" font-size="16" fill="#C4C4C4">Span80 · plain pointed</text>
<g transform="translate(160.21 712.57)"><use href="#E02"/></g>
<text x="20.0" y="730" font-size="16" fill="#C4C4C4">+X front · shared camera / physical cm</text>
<rect x="328.0" y="458" width="304.0" height="281" rx="4" fill="#242424"/>
<text x="340.0" y="484" font-size="18">E03 · Dungeon Bat</text>
<text x="340.0" y="508" font-size="16" fill="#C4C4C4">Span100 · pale V</text>
<g transform="translate(478.79 712.57)"><use href="#E03"/></g>
<text x="340.0" y="730" font-size="16" fill="#C4C4C4">+X front · shared camera / physical cm</text>
<rect x="648.0" y="458" width="304.0" height="281" rx="4" fill="#242424"/>
<text x="660.0" y="484" font-size="18">E05 · Giant Bat</text>
<text x="660.0" y="508" font-size="16" fill="#C4C4C4">Span170 · leading bars</text>
<g transform="translate(799.97 712.57)"><use href="#E05"/></g>
<text x="660.0" y="730" font-size="16" fill="#C4C4C4">+X front · shared camera / physical cm</text>
<rect x="968.0" y="458" width="304.0" height="281" rx="4" fill="#242424"/>
<text x="980.0" y="484" font-size="18">E06 · Undead Bat</text>
<text x="980.0" y="508" font-size="16" fill="#C4C4C4">Span110 · notched pale ends</text>
<g transform="translate(1126.20 712.57)"><use href="#E06"/></g>
<text x="980.0" y="730" font-size="16" fill="#C4C4C4">+X front · shared camera / physical cm</text>
<rect x="8.0" y="749" width="304.0" height="453" rx="4" fill="#242424"/>
<text x="20.0" y="775" font-size="18">E07 · Giant Spider</text>
<text x="20.0" y="799" font-size="16" fill="#C4C4C4">Span170 · eight legs</text>
<g transform="translate(168.89 1051.77)"><use href="#E07"/></g>
<text x="20.0" y="1193" font-size="16" fill="#C4C4C4">+X front · shared camera / physical cm</text>
<rect x="328.0" y="749" width="304.0" height="453" rx="4" fill="#242424"/>
<text x="340.0" y="775" font-size="18">E08 · Goblin</text>
<text x="340.0" y="799" font-size="16" fill="#C4C4C4">Head125 · one blade</text>
<g transform="translate(483.96 1051.77)"><use href="#E08"/></g>
<text x="340.0" y="1193" font-size="16" fill="#C4C4C4">+X front · shared camera / physical cm</text>
<rect x="648.0" y="749" width="304.0" height="453" rx="4" fill="#242424"/>
<text x="660.0" y="775" font-size="18">E09 · Goblin Warrior</text>
<text x="660.0" y="799" font-size="16" fill="#C4C4C4">Head125 · yoke / split blade</text>
<g transform="translate(797.73 1051.77)"><use href="#E09"/></g>
<text x="660.0" y="1193" font-size="16" fill="#C4C4C4">+X front · shared camera / physical cm</text>
<rect x="968.0" y="749" width="304.0" height="453" rx="4" fill="#242424"/>
<text x="980.0" y="775" font-size="18">E10 · Atrocity</text>
<text x="980.0" y="799" font-size="16" fill="#C4C4C4">Span180 · claw fans</text>
<g transform="translate(1147.21 1051.77)"><use href="#E10"/></g>
<text x="980.0" y="1193" font-size="16" fill="#C4C4C4">+X front · shared camera / physical cm</text>
<rect x="8.0" y="1212" width="624.0" height="487" rx="4" fill="#242424"/>
<text x="20.0" y="1238" font-size="18">E11 · Balork</text>
<text x="20.0" y="1262" font-size="16" fill="#C4C4C4">R100 / HH155 · wing440 · horns310 · shaft400</text>
<g transform="translate(322.98 1593.42)"><use href="#E11"/></g>
<text x="20.0" y="1690" font-size="16" fill="#C4C4C4">+X front · shared camera / physical cm</text>
<rect x="648.0" y="1212" width="624.0" height="487" rx="4" fill="#242424"/>
<text x="660.0" y="1238" font-size="18">Scale comparison</text>
<text x="660.0" y="1262" font-size="16" fill="#C4C4C4">Human175 / Atrocity190 resting</text>
<g transform="translate(800.39 1593.42)"><use href="#P-BodyA"/></g>
<g transform="translate(1147.21 1593.42)"><use href="#E10"/></g>
<text x="660.0" y="1690" font-size="16" fill="#C4C4C4">+X front · shared camera / physical cm</text>
</g></svg>
